<?xml version="1.0" encoding="UTF-8" standalone="no"?>
<!DOCTYPE svg PUBLIC "-//W3C//DTD SVG 1.1//EN" "http://www.w3.org/Graphics/SVG/1.1/DTD/svg11.dtd">
<svg width="100%" height="100%" viewBox="0 0 96 96" version="1.1" xmlns="http://www.w3.org/2000/svg" xmlns:xlink="http://www.w3.org/1999/xlink" xml:space="preserve" xmlns:serif="http://www.serif.com/" style="fill-rule:evenodd;clip-rule:evenodd;stroke-linejoin:round;stroke-miterlimit:2;">
    <rect id="Artboard1" x="0" y="0" width="96" height="96" style="fill:none;"/>
    <g id="Artboard11" serif:id="Artboard1">
        <g id="help-with-circle" transform="matrix(4.26841,0,0,4.26841,5.31589,5.31589)">
            <path d="M10,0.4C4.698,0.4 0.4,4.698 0.4,10C0.4,15.302 4.698,19.6 10,19.6C15.301,19.6 19.6,15.302 19.6,9.999C19.6,4.698 15.301,0.4 10,0.4ZM9.849,15.599L9.798,15.599C9.016,15.576 8.464,14.999 8.487,14.228C8.509,13.47 9.074,12.919 9.83,12.919L9.876,12.921C10.68,12.944 11.226,13.515 11.203,14.308C11.18,15.068 10.625,15.599 9.849,15.599ZM13.14,9.068C12.956,9.328 12.552,9.654 12.042,10.051L11.48,10.438C11.172,10.678 10.986,10.905 10.917,11.126C10.861,11.3 10.835,11.347 10.83,11.702L10.83,11.792L8.685,11.792L8.691,11.61C8.718,10.866 8.736,10.426 9.045,10.063C9.53,9.495 10.6,8.805 10.645,8.776C10.799,8.661 10.928,8.53 11.024,8.389C11.249,8.078 11.348,7.834 11.348,7.596C11.348,7.262 11.25,6.953 11.055,6.68C10.867,6.414 10.51,6.282 9.994,6.282C9.482,6.282 9.131,6.444 8.922,6.778C8.706,7.119 8.597,7.478 8.597,7.845L8.597,7.937L6.386,7.937L6.39,7.841C6.447,6.488 6.931,5.513 7.825,4.944C8.388,4.583 9.089,4.4 9.906,4.4C10.974,4.4 11.878,4.66 12.588,5.172C13.309,5.691 13.674,6.469 13.674,7.483C13.673,8.05 13.494,8.583 13.14,9.068Z" style="fill:rgb(190,190,190);fill-rule:nonzero;"/>
        </g>
    </g>
</svg>
