<?xml version="1.0" encoding="UTF-8" standalone="no"?>
<!DOCTYPE svg PUBLIC "-//W3C//DTD SVG 1.1//EN" "http://www.w3.org/Graphics/SVG/1.1/DTD/svg11.dtd">
<svg width="100%" height="100%" viewBox="0 0 96 96" version="1.1" xmlns="http://www.w3.org/2000/svg" xmlns:xlink="http://www.w3.org/1999/xlink" xml:space="preserve" xmlns:serif="http://www.serif.com/" style="fill-rule:evenodd;clip-rule:evenodd;stroke-linejoin:round;stroke-miterlimit:2;">
    <rect id="Artboard1" x="0" y="0" width="96" height="96" style="fill:none;"/>
    <g id="Artboard11" serif:id="Artboard1">
        <g id="trophy" transform="matrix(3.17681,0,0,3.17681,6.70153,3.52631)">
            <path d="M7.156,13.797C6.5,12.36 6,10.453 6,8L2,8L2,9.5C2,11.031 4.078,13.156 7.156,13.797ZM24,9.5L24,8L20,8C20,10.453 19.5,12.359 18.844,13.797C21.922,13.156 24,11.031 24,9.5ZM26,7.5L26,9.5C26,12.469 22.406,15.75 17.531,15.984C16.906,16.781 16.328,17.25 16.047,17.468C15.219,18.218 15,18.999 15,19.999C15,20.999 15.5,21.999 17,21.999C18.5,21.999 20,22.999 20,24.499L20,25.499C20,25.78 19.781,25.999 19.5,25.999L6.5,25.999C6.219,25.999 6,25.78 6,25.499L6,24.499C6,22.999 7.5,21.999 9,21.999C10.5,21.999 11,20.999 11,19.999C11,18.999 10.781,18.218 9.953,17.468C9.672,17.249 9.094,16.78 8.469,15.984C3.594,15.75 -0,12.468 -0,9.5L-0,7.5C-0,6.672 0.672,6 1.5,6L6,6L6,4.5C6,3.125 7.125,2 8.5,2L17.5,2C18.875,2 20,3.125 20,4.5L20,6L24.5,6C25.328,6 26,6.672 26,7.5Z" style="fill:rgb(190,190,190);fill-rule:nonzero;"/>
        </g>
    </g>
</svg>
